<svg id="Layer_3" data-name="Layer 3" xmlns="http://www.w3.org/2000/svg" xmlns:xlink="http://www.w3.org/1999/xlink" viewBox="0 0 298.9 345.25"><defs><clipPath id="clip-path" transform="translate(-103.46 -62.78)"><path fill="#fcf4f2" d="M297.77,199.1,254.7,244.81l-44.33-44.2s-29.16,52.07-18.12,91.74a148.44,148.44,0,0,1,5.62,48.1L194.1,408H315.3l-3.73-66.91a154.15,154.15,0,0,1,5.52-48.84C327.9,252.32,297.77,199.1,297.77,199.1Z"/></clipPath></defs><path fill="none" stroke="#783838" stroke-linecap="round" stroke-linejoin="round" stroke-width="0.82px" d="M315.33,157.29s21.35,30.21-2.59,51.56" transform="translate(-103.46 -62.78)"/><path fill="#443636" d="M271.91,66.56c-13.1-5.46-28.05-5.14-40.4,1.86A35.47,35.47,0,0,0,214,90.87c-7.35,28.26-28.54,25.55-25.71,50.39s-42.93,50.36,6.13,73.21S304.85,227.56,318.62,194s-14.83-44-9.53-65.43S296.17,107.12,292,86.64C290,76.43,280.7,70.22,271.91,66.56Z" transform="translate(-103.46 -62.78)"/><path fill="#e52828" d="M356,237.33a22.24,22.24,0,1,0,44.47,0c0-12.28-3.92-17.14-22.24-14.44C360.47,219.59,356,225.05,356,237.33Z" transform="translate(-103.46 -62.78)"/><path fill="#edaa9f" d="M285.94,126.17a11,11,0,0,1,9.83-5.32c7.11,0,6.56,27-13.11,27Z" transform="translate(-103.46 -62.78)"/><path fill="#edaa9f" d="M225.06,126.17a11.05,11.05,0,0,0-9.84-5.32c-7.1,0-6.55,27,13.12,27Z" transform="translate(-103.46 -62.78)"/><path fill="#ffe0d2" d="M249,157.29H262a11.16,11.16,0,0,1,11.16,11.16v47.92a0,0,0,0,1,0,0H237.8a0,0,0,0,1,0,0V168.44A11.16,11.16,0,0,1,249,157.29Z" transform="translate(407.54 310.87) rotate(180)"/><path fill="#edaa9f" d="M237.8,160.69v21.23c1.13.1,2.25.17,3.33.17,10,0,22.53-4.25,32.07-13.64v-7.76Z" transform="translate(-103.46 -62.78)"/><path fill="#ffe0d2" d="M255.5,75.69S292,75.29,292,124.4c0,36.93-23.11,49.66-37.82,49.66S219,161.33,219,124.4C219,75.29,255.5,75.69,255.5,75.69Z" transform="translate(-103.46 -62.78)"/><path fill="#f65d33" d="M249.51,153.27s4.74-3.34,9.89-1.8C256.51,160.11,250.52,156.14,249.51,153.27Z" transform="translate(-103.46 -62.78)"/><path fill="#441e1e" d="M240.34,127.84c0,1.87-1,3.39-2.25,3.39s-2.26-1.52-2.26-3.39,1-3.38,2.26-3.38S240.34,126,240.34,127.84Z" transform="translate(-103.46 -62.78)"/><path fill="#441e1e" d="M270.89,127.84c0,1.87-1,3.39-2.26,3.39s-2.26-1.52-2.26-3.39,1-3.38,2.26-3.38S270.89,126,270.89,127.84Z" transform="translate(-103.46 -62.78)"/><path fill="none" stroke-linecap="round" stroke-linejoin="round" stroke="#441e1e" stroke-width="1.63px" d="M275.51,118.74a9.79,9.79,0,0,0-9.14,0" transform="translate(-103.46 -62.78)"/><path fill="none" stroke-linecap="round" stroke-linejoin="round" stroke="#441e1e" stroke-width="1.63px" d="M244.62,118.74a9.79,9.79,0,0,0-9.14,0" transform="translate(-103.46 -62.78)"/><path fill="none" stroke-linecap="round" stroke-linejoin="round" stroke-width="0.82px" stroke="#441e1e" d="M254.7,125.52l-2.83,14.39s-7.29,4.92,1.81,4.92" transform="translate(-103.46 -62.78)"/><path fill="none" stroke-linecap="round" stroke-linejoin="round" stroke-width="0.82px" stroke="#441e1e" d="M249.11,153.16a12.23,12.23,0,0,0,10.29-1.69" transform="translate(-103.46 -62.78)"/><path fill="none" stroke-linecap="round" stroke-linejoin="round" stroke-width="0.82px" stroke="#441e1e" d="M243.51,124.88a9.07,9.07,0,0,0-6.91.32" transform="translate(-103.46 -62.78)"/><path fill="none" stroke-linecap="round" stroke-linejoin="round" stroke-width="0.82px" stroke="#441e1e" d="M267.49,124.88a9.07,9.07,0,0,1,6.91.32" transform="translate(-103.46 -62.78)"/><path fill="#ffe0d2" d="M312.74,208.85c-14.33-16.22-57.24-16.66-57.24-16.66s-42.91.44-57.24,16.66,16.27,172.3,16.27,172.3h80.65S327.06,225.07,312.74,208.85Z" transform="translate(-103.46 -62.78)"/><path fill="#ffe0d2" d="M210.37,200.61s-26.39,0-49.11,54.73-27,86.26-13.48,94,23.12-6,43.92-68C207.1,234.33,210.37,200.61,210.37,200.61Z" transform="translate(-103.46 -62.78)"/><path fill="#ffe0d2" d="M297.77,199.1s38.36-1.62,47.59,62.66c8.41,58.61,13.54,89.36-.95,94.92s-21.94-9.43-33.08-73.87C303.23,234,297.77,199.1,297.77,199.1Z" transform="translate(-103.46 -62.78)"/><path fill="#fcf4f2" d="M297.77,199.1,254.7,244.81l-44.33-44.2s-29.16,52.07-18.12,91.74a148.44,148.44,0,0,1,5.62,48.1L194.1,408H315.3l-3.73-66.91a154.15,154.15,0,0,1,5.52-48.84C327.9,252.32,297.77,199.1,297.77,199.1Z" transform="translate(-103.46 -62.78)"/><g clip-path="url(#clip-path)"><line fill="none" stroke="#9bbe50" stroke-miterlimit="10" stroke-width="0.49px" x1="83.6" y1="339.04" x2="218.95" y2="339.04"/><line fill="none" stroke="#9bbe50" stroke-miterlimit="10" stroke-width="0.49px" x1="83.6" y1="331.7" x2="218.95" y2="331.7"/><line fill="none" stroke="#9bbe50" stroke-miterlimit="10" stroke-width="0.49px" x1="83.6" y1="324.36" x2="218.95" y2="324.36"/><line fill="none" stroke="#9bbe50" stroke-miterlimit="10" stroke-width="0.49px" x1="83.6" y1="317.03" x2="218.95" y2="317.03"/><line fill="none" stroke="#9bbe50" stroke-miterlimit="10" stroke-width="0.49px" x1="83.6" y1="309.69" x2="218.95" y2="309.69"/><line fill="none" stroke="#9bbe50" stroke-miterlimit="10" stroke-width="0.49px" x1="83.6" y1="302.35" x2="218.95" y2="302.35"/><line fill="none" stroke="#9bbe50" stroke-miterlimit="10" stroke-width="0.49px" x1="83.6" y1="295.01" x2="218.95" y2="295.01"/><line fill="none" stroke="#9bbe50" stroke-miterlimit="10" stroke-width="0.49px" x1="83.6" y1="287.67" x2="218.95" y2="287.67"/><line fill="none" stroke="#9bbe50" stroke-miterlimit="10" stroke-width="0.49px" x1="83.6" y1="280.33" x2="218.95" y2="280.33"/><line fill="none" stroke="#9bbe50" stroke-miterlimit="10" stroke-width="0.49px" x1="83.6" y1="273" x2="218.95" y2="273"/><line fill="none" stroke="#9bbe50" stroke-miterlimit="10" stroke-width="0.49px" x1="83.6" y1="265.66" x2="218.95" y2="265.66"/><line fill="none" stroke="#9bbe50" stroke-miterlimit="10" stroke-width="0.49px" x1="83.6" y1="258.32" x2="218.95" y2="258.32"/><line fill="none" stroke="#9bbe50" stroke-miterlimit="10" stroke-width="0.49px" x1="83.6" y1="250.98" x2="218.95" y2="250.98"/><line fill="none" stroke="#9bbe50" stroke-miterlimit="10" stroke-width="0.49px" x1="83.6" y1="243.64" x2="218.95" y2="243.64"/><line fill="none" stroke="#9bbe50" stroke-miterlimit="10" stroke-width="0.49px" x1="83.6" y1="236.3" x2="218.95" y2="236.3"/><line fill="none" stroke="#9bbe50" stroke-miterlimit="10" stroke-width="0.49px" x1="83.6" y1="228.97" x2="218.95" y2="228.97"/><line fill="none" stroke="#9bbe50" stroke-miterlimit="10" stroke-width="0.49px" x1="83.6" y1="221.63" x2="218.95" y2="221.63"/><line fill="none" stroke="#9bbe50" stroke-miterlimit="10" stroke-width="0.49px" x1="83.6" y1="214.29" x2="218.95" y2="214.29"/><line fill="none" stroke="#9bbe50" stroke-miterlimit="10" stroke-width="0.49px" x1="83.6" y1="206.95" x2="218.95" y2="206.95"/><line fill="none" stroke="#9bbe50" stroke-miterlimit="10" stroke-width="0.49px" x1="83.6" y1="199.61" x2="218.95" y2="199.61"/><line fill="none" stroke="#9bbe50" stroke-miterlimit="10" stroke-width="0.49px" x1="83.6" y1="192.27" x2="218.95" y2="192.27"/><line fill="none" stroke="#9bbe50" stroke-miterlimit="10" stroke-width="0.49px" x1="83.6" y1="184.94" x2="218.95" y2="184.94"/><line fill="none" stroke="#9bbe50" stroke-miterlimit="10" stroke-width="0.49px" x1="83.6" y1="177.6" x2="218.95" y2="177.6"/><line fill="none" stroke="#9bbe50" stroke-miterlimit="10" stroke-width="0.49px" x1="83.6" y1="170.26" x2="218.95" y2="170.26"/><line fill="none" stroke="#9bbe50" stroke-miterlimit="10" stroke-width="0.49px" x1="83.6" y1="162.92" x2="218.95" y2="162.92"/><line fill="none" stroke="#9bbe50" stroke-miterlimit="10" stroke-width="0.49px" x1="83.6" y1="155.58" x2="218.95" y2="155.58"/><line fill="none" stroke="#9bbe50" stroke-miterlimit="10" stroke-width="0.49px" x1="83.6" y1="148.24" x2="218.95" y2="148.24"/><line fill="none" stroke="#9bbe50" stroke-miterlimit="10" stroke-width="0.49px" x1="83.6" y1="140.91" x2="218.95" y2="140.91"/></g><line fill="none" stroke-linecap="round" stroke-linejoin="round" stroke-width="0.82px" stroke="#441e1e" x1="151.24" y1="182.03" x2="151.24" y2="344.26"/><circle fill="#783838" cx="155.49" cy="184.7" r="1.85"/><path fill="#783838" d="M257.11,269.6a1.85,1.85,0,1,0,1.84-1.84A1.84,1.84,0,0,0,257.11,269.6Z" transform="translate(-103.46 -62.78)"/><path fill="#783838" d="M257.11,291.73a1.85,1.85,0,1,0,1.84-1.85A1.84,1.84,0,0,0,257.11,291.73Z" transform="translate(-103.46 -62.78)"/><path fill="#783838" d="M257.11,313.86A1.85,1.85,0,1,0,259,312,1.84,1.84,0,0,0,257.11,313.86Z" transform="translate(-103.46 -62.78)"/><path fill="#783838" d="M257.11,336a1.85,1.85,0,1,0,1.84-1.84A1.84,1.84,0,0,0,257.11,336Z" transform="translate(-103.46 -62.78)"/><path fill="#783838" d="M257.11,358.11a1.85,1.85,0,1,0,1.84-1.85A1.84,1.84,0,0,0,257.11,358.11Z" transform="translate(-103.46 -62.78)"/><circle fill="#783838" cx="155.49" cy="317.46" r="1.85"/><circle fill="#783838" cx="155.49" cy="339.58" r="1.85"/><polygon fill="#783838" points="94.91 268.71 207.57 268.71 207.57 275.05 94.55 275.05 94.91 268.71"/><path fill="#faa149" d="M161.09,120.86c-9.28,1.35-10.08,12-10.84,18.53-1.66,14.22,2.69,28.31,4.7,42.22l6,41.71q2.53,17.44,5.05,34.89c1.47,10.16,1.58,21.07,5.18,31,1.81,5,4.9,7.7,9.22,11.26,6,5,13.38,2.58,16.78-4.15,6.34-12.53,2.21-23,.36-35.78q-2.34-16.14-4.67-32.29-3.08-21.23-6.14-42.46c-2-14-3.18-28.47-6.27-42.28C179,136.67,172.06,119.27,161.09,120.86Z" transform="translate(-103.46 -62.78)"/><ellipse fill="#f9ba55" cx="165.62" cy="148.65" rx="12.1" ry="2.15" transform="translate(-123.04 -37.54) rotate(-8.23)"/><path fill="#f9ba55" d="M156.25,168.38c.17,1.17,5.66,1.35,12.28.39s11.83-2.68,11.66-3.86-5.66-1.35-12.28-.39S156.08,167.2,156.25,168.38Z" transform="translate(-103.46 -62.78)"/><path fill="#f9ba55" d="M158.85,186.37c.17,1.17,5.67,1.35,12.28.39s11.84-2.68,11.67-3.86-5.67-1.34-12.28-.39S158.68,185.2,158.85,186.37Z" transform="translate(-103.46 -62.78)"/><path fill="#f9ba55" d="M161.45,204.36c.17,1.17,5.67,1.35,12.28.39s11.84-2.68,11.67-3.85-5.67-1.35-12.28-.39S161.28,203.19,161.45,204.36Z" transform="translate(-103.46 -62.78)"/><path fill="#faa149" d="M164.05,222.35c.17,1.18,5.67,1.35,12.29.4s11.83-2.69,11.66-3.86-5.66-1.35-12.28-.39S163.88,221.18,164.05,222.35Z" transform="translate(-103.46 -62.78)"/><path fill="#faa149" d="M166.66,240.35c.17,1.17,5.67,1.34,12.28.39s11.84-2.69,11.67-3.86-5.67-1.35-12.29-.39S166.49,239.17,166.66,240.35Z" transform="translate(-103.46 -62.78)"/><path fill="#faa149" d="M169.26,258.34c.17,1.17,5.67,1.35,12.28.39s11.84-2.68,11.67-3.86-5.67-1.35-12.28-.39S169.09,257.17,169.26,258.34Z" transform="translate(-103.46 -62.78)"/><path fill="#faa149" d="M171.86,276.33c.17,1.17,5.67,1.35,12.29.39S196,274,195.81,272.87s-5.67-1.35-12.28-.4S171.69,275.16,171.86,276.33Z" transform="translate(-103.46 -62.78)"/><path fill="#f9ba55" d="M180.53,121.6c-9.34.86-10.69,11.49-11.79,17.94-2.41,14.11,1.19,28.41,2.47,42.4s2.55,28,3.83,42L178.25,259c.93,10.23.46,21.13,3.54,31.23,1.54,5.08,4.49,7.94,8.62,11.73,5.76,5.28,13.22,3.28,17-3.26,7-12.18,3.42-22.83,2.24-35.71l-3-32.49-3.9-42.73c-1.29-14.1-1.68-28.6-4-42.55C197.55,138.33,191.57,120.59,180.53,121.6Z" transform="translate(-103.46 -62.78)"/><path fill="#faa149" d="M171.54,150.69c.11,1.18,5.59,1.65,12.25,1s12-2.06,11.85-3.24-5.59-1.64-12.24-1S171.43,149.51,171.54,150.69Z" transform="translate(-103.46 -62.78)"/><path fill="#faa149" d="M173.2,168.8c.1,1.18,5.59,1.64,12.24,1s12-2.05,11.85-3.23-5.59-1.65-12.24-1S173.09,167.62,173.2,168.8Z" transform="translate(-103.46 -62.78)"/><ellipse fill="#faa149" cx="186.9" cy="185.8" rx="12.1" ry="2.15" transform="translate(-119.58 -45.01) rotate(-5.22)"/><path fill="#faa149" d="M176.5,205c.11,1.18,5.59,1.64,12.25,1s12-2,11.85-3.23-5.59-1.65-12.24-1S176.4,203.83,176.5,205Z" transform="translate(-103.46 -62.78)"/><path fill="#faa149" d="M178.16,223.11c.1,1.18,5.59,1.64,12.24,1s12-2.06,11.86-3.24-5.59-1.65-12.25-1S178.05,221.93,178.16,223.11Z" transform="translate(-103.46 -62.78)"/><path fill="#faa149" d="M179.81,241.21c.11,1.18,5.59,1.65,12.24,1s12-2.06,11.86-3.24-5.59-1.64-12.25-1S179.7,240,179.81,241.21Z" transform="translate(-103.46 -62.78)"/><path fill="#faa149" d="M181.46,259.32c.11,1.18,5.59,1.64,12.25,1s12-2.06,11.85-3.24-5.59-1.65-12.24-1S181.36,258.14,181.46,259.32Z" transform="translate(-103.46 -62.78)"/><path fill="#faa149" d="M183.12,277.42c.11,1.18,5.59,1.65,12.24,1s12-2.06,11.86-3.24-5.59-1.64-12.25-1S183,276.24,183.12,277.42Z" transform="translate(-103.46 -62.78)"/><path fill="#e5421c" d="M191.37,188.41a16.85,16.85,0,1,0,30.42,14.51c4-8.4,2.91-13-10.5-17.13C200.25,177.76,195.38,180,191.37,188.41Z" transform="translate(-103.46 -62.78)"/><path fill="#f65d33" d="M174,212.7a16.85,16.85,0,1,0,31.76-11.25c-3.11-8.77-7.14-11.24-19.53-4.68C172.78,198.89,170.93,203.93,174,212.7Z" transform="translate(-103.46 -62.78)"/><path fill="#fcc34f" d="M174.09,228c3.86,3.87,33,6.47,49.32-9.88s13.74-45.45,9.87-49.32-7.53,19-23.88,35.32S170.22,224.15,174.09,228Z" transform="translate(-103.46 -62.78)"/><path fill="#e4b752" d="M189.46,240.83c4.6,2.94,33.59-.78,46-20.25s3.64-47.35-1-50.29-3.28,20.14-15.73,39.62S184.85,237.88,189.46,240.83Z" transform="translate(-103.46 -62.78)"/><path fill="#fcc34f" d="M201,248.32c5,2.25,33.13-5.59,42.66-26.65s-3.19-47.38-8.18-49.63-.35,20.41-9.87,41.47S196,246.07,201,248.32Z" transform="translate(-103.46 -62.78)"/><path fill="#faa149" d="M177.56,234.54c4.09,3.63,33.3,4.53,48.66-12.75s11.05-46.18,7-49.82-6.4,19.38-21.76,36.66S173.47,230.91,177.56,234.54Z" transform="translate(-103.46 -62.78)"/><path fill="#55997c" d="M168.89,258.53l-6.3,1.47c-8.79-37.54-23.31-54.59-33.94-62.28-11.31-8.18-20.72-7.74-20.82-7.74l-.43-6.45C109.16,183.4,150.82,181.39,168.89,258.53Z" transform="translate(-103.46 -62.78)"/><path fill="#55997c" d="M170.53,258.33l-6.34,1.3C149.47,196.76,105.43,165.26,105,165l3.71-5.29c1.15.8,18.07,12.9,34.59,36.89-13.93-26.64-28.58-39.05-28.82-39.24l4.13-5C120.19,153.64,157.79,185.48,170.53,258.33Z" transform="translate(-103.46 -62.78)"/><path fill="#8dd3b7" d="M167.86,254.13l-6.3,1.47c-16.43-70.15-53.78-78.22-54.16-78.3l1.24-6.35C110.34,171.29,150.48,180,167.86,254.13Z" transform="translate(-103.46 -62.78)"/><path fill="#8dd3b7" d="M165.21,245.47l-6.3,1.48c-16.87-72.06-55.07-90.28-55.45-90.46l2.66-5.89C107.81,151.35,147.54,170,165.21,245.47Z" transform="translate(-103.46 -62.78)"/><path fill="#8dd3b7" d="M166.89,261.37l-6.42.8c-7.24-58.17-42.18-59.5-43.66-59.53l.08-6.47c.44,0,11,.21,22.4,8.57C149.6,212.27,162.76,228.21,166.89,261.37Z" transform="translate(-103.46 -62.78)"/><path fill="#8dd3b7" d="M171.65,245.54l-6.39,1c-12.75-83-54.2-106.57-54.61-106.8l3.1-5.67C115.57,135.05,158.42,159.41,171.65,245.54Z" transform="translate(-103.46 -62.78)"/><path fill="#8dd3b7" d="M179.56,259.13l-6.39,1c-11.75-76.5-40.66-123.11-40.95-123.57l5.47-3.45C138,133.56,167.59,181.21,179.56,259.13Z" transform="translate(-103.46 -62.78)"/><path fill="#55997c" d="M176.49,260.39l-6.4.89C157.22,183.83,113.21,145.4,112.77,145l4.2-4.92c1.15,1,18.34,15.94,34.5,45.87-14.55-36-31.5-53.83-31.76-54.1l4.64-4.51C126.06,129.13,166.56,171.67,176.49,260.39Z" transform="translate(-103.46 -62.78)"/><path fill="#cc9671" d="M250.49,289l-2.56-74.46-4.5-2.61-4.22,2.67-4.31-2.51-4.21,2.67-4.31-2.51-4.21,2.67-4.31-2.51-4.21,2.67-4.31-2.51-4.21,2.67-4.31-2.51-4.21,2.67-4.3-2.51-4.21,2.67-4.3-2.51-4.21,2.67-4.3-2.51-4.21,2.67-4.3-2.51-4.21,2.67-4.31-2.51-4.2,2.67-4.31-2.51-4.21,2.67-3.22-1.88,20.6,139.83c30.25,12.95,63.36,5.79,98.2-5.18Z" transform="translate(-103.46 -62.78)"/><line fill="none" stroke-linecap="round" stroke-linejoin="round" stroke-width="0.82px" stroke="#89532e" x1="127.38" y1="154.3" x2="136.47" y2="292.46"/><path fill="#441e1e" d="M227.69,175.35s6.59.58,8.92-2.54l-2.36-5.11H229.6Z" transform="translate(-103.46 -62.78)"/><path fill="#ffe0d2" d="M353.16,356.14s-8.55,10.63-22.29-2.9c-10.46-10.32,28.52-87.72,28.52-87.72l14.84-5.37S364.33,345,353.16,356.14Z" transform="translate(-103.46 -62.78)"/><path fill="#ffe0d2" d="M155.83,351.35s-13.56,1.46-13.7-17.82c-.11-14.69,78.48-35.28,78.48-35.28L225.17,314S171.62,351.35,155.83,351.35Z" transform="translate(-103.46 -62.78)"/><path fill="#ffe0d2" d="M250.49,289s8.83-.89,8.45-4.31c-.41-3.77-10.76-2.23-17.13.7s-21.2,12.85-21.2,12.85l1.74,15.8s18.1-.22,31.18-1.67C251.77,296.42,250.49,289,250.49,289Z" transform="translate(-103.46 -62.78)"/><path fill="#ffe0d2" d="M250.58,295.4l4.56-.51a3.29,3.29,0,0,0,2.91-3.62h0a3.3,3.3,0,0,0-3.63-2.91l-4.56.5a3.3,3.3,0,0,0-2.91,3.63h0A3.3,3.3,0,0,0,250.58,295.4Z" transform="translate(-103.46 -62.78)"/><path fill="#ffe0d2" d="M252,301.41l4.56-.5a3.3,3.3,0,0,0,2.91-3.63h0a3.3,3.3,0,0,0-3.63-2.91l-4.56.5a3.3,3.3,0,0,0-2.91,3.63h0A3.3,3.3,0,0,0,252,301.41Z" transform="translate(-103.46 -62.78)"/><path fill="#ffe0d2" d="M251.91,307.5l4.56-.51a3.29,3.29,0,0,0,2.91-3.62h0a3.3,3.3,0,0,0-3.63-2.91l-4.56.5a3.31,3.31,0,0,0-2.91,3.63h0A3.3,3.3,0,0,0,251.91,307.5Z" transform="translate(-103.46 -62.78)"/><path fill="#ffe0d2" d="M251.58,312.6l3.9-.43a2.83,2.83,0,0,0,2.49-3.11h0a2.82,2.82,0,0,0-3.1-2.49L251,307a2.83,2.83,0,0,0-2.49,3.11h0A2.83,2.83,0,0,0,251.58,312.6Z" transform="translate(-103.46 -62.78)"/><path fill="#ffe0d2" d="M400.59,236c-1.63.08-1.65,2.43-1.5,4-.27-1.35-.89-3.24-2.22-3.17-2.05.1-1.95,6.76-1.95,6.76s.08-4.31-2.87-4c-1.93.22-.09,9.94-2,13.43s-10,1.73-18.9,2.44S358,268.14,358,268.14l11.38,6.8c1.7-4.69,5.7-4.66,15.54-6.5s12.59-4.9,15.32-13S403,235.87,400.59,236Z" transform="translate(-103.46 -62.78)"/><path fill="#783838" d="M254.7,68.4" transform="translate(-103.46 -62.78)"/><path fill="#443636" d="M207.73,120.85s33.55,13.38,63.21-33.94c4.57,31.83,31.44,37.55,31.44,37.55S290,71.37,254.7,71.37,207.73,120.85,207.73,120.85Z" transform="translate(-103.46 -62.78)"/><path fill="#9bbe50" d="M362.83,208.69S368.25,224,378.18,224C378.18,212.19,362.83,208.69,362.83,208.69Z" transform="translate(-103.46 -62.78)"/><path fill="none" stroke-linecap="round" stroke-linejoin="round" stroke-width="0.82px" stroke="#441e1e" d="M383,214.34s-4.81,2.49-4.81,9.7" transform="translate(-103.46 -62.78)"/><path fill="none" stroke-linecap="round" stroke-linejoin="round" stroke-width="0.82px" stroke="#3a3030" d="M270.94,85.37s-13.83,45.86-60.84,36.19" transform="translate(-103.46 -62.78)"/><path fill="none" stroke-linecap="round" stroke-linejoin="round" stroke-width="0.82px" stroke="#441e1e" d="M347.9,289.88s-15.19,33.34-17.68,48.28" transform="translate(-103.46 -62.78)"/></svg>